<?xml version="1.0" standalone="no"?>
<!DOCTYPE svg PUBLIC "-//W3C//DTD SVG 20010904//EN"
 "http://www.w3.org/TR/2001/REC-SVG-20010904/DTD/svg10.dtd">
<svg version="1.0" xmlns="http://www.w3.org/2000/svg"
 width="640.000000pt" height="736.000000pt" viewBox="0 0 640.000000 736.000000"
 preserveAspectRatio="xMidYMid meet">

<g transform="translate(0.000000,736.000000) scale(0.100000,-0.100000)"
fill="#000000" stroke="none">
<path d="M2855 7094 c-939 -59 -1582 -325 -2088 -865 -272 -290 -385 -540
-376 -826 4 -88 7 -105 25 -123 33 -34 87 -35 189 -5 123 36 297 39 398 6 41
-13 67 -27 67 -36 0 -41 -141 -132 -221 -142 -47 -7 -92 19 -144 82 -20 25
-40 45 -45 45 -4 0 -42 -32 -84 -71 -55 -51 -84 -88 -108 -137 -31 -62 -33
-75 -37 -183 -3 -131 14 -219 68 -351 42 -99 76 -137 173 -194 46 -26 120 -76
165 -110 118 -89 202 -104 265 -47 17 15 22 14 72 -11 33 -17 78 -30 114 -33
52 -5 62 -3 81 16 31 31 27 76 -8 112 -24 24 -38 29 -78 29 -31 0 -56 7 -72
19 -23 18 -24 21 -13 59 23 76 17 108 -33 161 -25 27 -88 77 -140 111 -71 47
-92 66 -88 78 5 14 49 88 58 100 1 1 26 -12 54 -29 132 -82 253 -39 452 160
166 167 238 290 239 409 0 36 -6 75 -15 91 -18 35 -107 116 -154 141 l-36 19
70 68 c171 165 465 313 736 371 260 56 524 76 898 69 287 -5 442 -19 676 -58
350 -59 545 -134 730 -280 86 -68 195 -167 195 -179 0 -3 -21 -16 -46 -29 -88
-47 -134 -150 -115 -256 14 -74 80 -196 151 -277 179 -207 365 -304 504 -264
29 9 64 25 79 36 14 11 30 20 36 20 12 0 77 -113 86 -151 6 -24 1 -28 -97 -77
-150 -74 -198 -130 -198 -226 0 -40 -4 -47 -27 -59 -16 -8 -44 -12 -66 -9 -80
10 -138 -46 -99 -97 37 -50 129 -63 221 -32 54 19 55 19 82 -2 17 -12 49 -22
82 -25 71 -6 120 20 201 104 60 63 63 64 143 80 120 24 143 51 204 244 32 99
34 113 33 240 -1 116 -5 148 -28 223 -35 118 -82 188 -148 223 -49 25 -72 18
-147 -50 l-72 -65 -48 15 c-84 25 -201 100 -188 121 13 20 142 38 277 38 119
0 141 -3 184 -23 62 -28 107 -29 132 -1 17 19 19 37 18 148 0 69 -6 160 -14
201 -64 376 -318 706 -760 992 -438 282 -832 417 -1387 474 -141 15 -830 27
-978 18z m730 -59 c638 -21 1132 -169 1604 -478 176 -116 236 -163 350 -272
217 -209 340 -420 387 -665 18 -90 29 -268 20 -304 -8 -32 -24 -33 -96 -4 -48
19 -74 22 -195 22 -227 -1 -415 -52 -568 -155 -53 -36 -81 -49 -95 -45 -11 4
-43 43 -72 86 -69 107 -130 138 -146 73 -14 -53 60 -177 162 -274 66 -63 204
-155 204 -136 0 2 -22 18 -49 35 -79 52 -195 183 -237 268 -21 41 -34 77 -31
80 3 3 31 -32 62 -79 81 -123 117 -131 226 -51 46 34 168 94 189 94 6 0 23
-14 38 -32 33 -39 133 -104 173 -113 17 -4 28 -12 26 -18 -5 -17 -89 -44 -176
-58 -121 -19 -142 -62 -65 -136 25 -25 48 -42 51 -40 2 3 -5 27 -16 53 -12 26
-19 49 -16 52 2 3 43 11 91 19 129 20 223 68 326 168 27 25 55 45 65 45 26 0
90 -75 111 -132 64 -173 67 -335 7 -515 -45 -136 -62 -157 -141 -172 -90 -18
-128 -38 -179 -97 -57 -66 -114 -98 -163 -91 -63 11 -67 24 -23 72 52 56 64
80 56 115 -6 27 -47 71 -91 96 -16 9 -5 18 83 61 115 57 113 58 113 -41 0 -84
-24 -150 -72 -198 -27 -27 -32 -36 -16 -27 58 30 82 56 111 117 28 60 29 69
24 146 -12 162 -103 343 -200 392 -37 19 -44 12 -23 -22 17 -24 17 -27 1 -44
-29 -32 -99 -53 -153 -46 -197 26 -488 329 -509 530 -5 49 -3 57 20 80 34 34
82 34 131 1 20 -14 40 -25 43 -25 17 0 -57 65 -92 81 l-40 18 45 20 45 20 18
-22 c45 -56 80 -142 85 -209 6 -85 25 -91 43 -14 10 48 9 62 -9 122 -38 122
-138 250 -296 376 -122 98 -189 141 -284 185 -284 129 -872 214 -1392 199
-608 -16 -993 -110 -1317 -321 -111 -72 -238 -200 -281 -281 -50 -96 -75 -218
-56 -269 5 -11 13 7 25 53 16 65 72 192 85 192 6 0 46 -20 53 -26 3 -2 -14
-20 -36 -39 -22 -19 -43 -43 -46 -55 -4 -17 0 -16 39 10 62 44 97 48 128 17
34 -34 48 -90 35 -144 -31 -141 -204 -353 -385 -474 -50 -33 -67 -39 -112 -39
-54 0 -98 16 -122 45 -11 13 -10 18 4 33 27 31 18 34 -25 10 -54 -30 -121
-103 -153 -167 -52 -102 -70 -236 -44 -323 12 -42 78 -123 130 -160 l31 -21
17 20 c16 20 17 20 38 2 l22 -18 -22 -15 c-44 -31 -109 -12 -184 54 -17 14
-66 48 -110 75 -136 83 -153 96 -179 143 -46 81 -85 211 -94 307 -15 158 10
242 102 340 l55 60 34 -32 c78 -74 188 -121 376 -162 l77 -17 7 -50 c7 -50 42
-94 74 -94 11 0 10 7 -7 29 -16 22 -22 43 -21 85 0 31 -5 59 -11 64 -7 4 -48
17 -92 27 -44 10 -102 25 -129 35 l-50 16 44 18 c67 27 129 74 159 121 l27 43
44 -19 c89 -40 213 -79 249 -79 28 0 45 7 65 27 47 47 52 71 7 30 -51 -46 -49
-46 -204 26 -146 69 -154 72 -272 103 -146 38 -327 44 -423 15 -39 -11 -86
-21 -106 -21 -46 0 -51 18 -43 154 13 209 87 380 265 605 76 96 255 270 375
366 470 374 1069 564 1877 594 190 8 282 7 615 -4z m-2574 -2496 c112 -77 139
-108 139 -159 0 -21 -5 -42 -11 -46 -9 -5 -10 1 -5 20 6 25 4 26 -30 26 -46 0
-92 -32 -111 -78 -14 -34 -14 -34 -35 -16 -30 28 -65 93 -72 136 -9 50 13 178
30 178 3 0 46 -28 95 -61z m4319 -153 c0 -7 -7 -19 -15 -26 -16 -13 -20 -3 -9
24 8 20 24 21 24 2z m78 -47 c4 -19 -59 -92 -104 -119 -53 -33 -122 -48 -166
-37 -21 5 -38 13 -38 17 0 14 24 17 53 7 40 -13 122 29 183 97 49 54 67 62 72
35z m-4284 -72 c77 -66 98 -77 143 -75 45 1 63 -6 63 -28 0 -24 -54 -21 -118
6 -59 26 -178 140 -146 140 4 0 30 -20 58 -43z"/>
<path d="M2840 6989 c-621 -39 -1149 -194 -1530 -448 -98 -65 -218 -159 -242
-188 -7 -10 16 7 52 37 210 173 531 336 840 425 412 119 808 162 1400 152 458
-8 709 -36 999 -113 186 -49 299 -92 496 -189 233 -116 465 -265 605 -390 25
-22 34 -27 20 -11 -39 43 -182 155 -315 243 -544 365 -1072 497 -1965 491
-124 0 -286 -5 -360 -9z"/>
<path d="M2660 6883 l0 -32 -55 6 c-39 4 -68 1 -98 -11 -50 -19 -72 -40 -113
-111 -24 -42 -28 -61 -29 -120 0 -38 4 -83 8 -100 5 -16 9 -36 9 -44 1 -8 18
-44 38 -80 30 -55 40 -66 59 -63 19 2 21 0 12 -12 -9 -11 -6 -17 12 -29 45
-29 89 -35 172 -22 112 17 117 20 109 64 -4 20 -10 43 -15 52 -5 9 -14 57 -20
107 -11 82 -11 93 5 117 10 15 15 29 12 32 -6 7 -159 -7 -173 -15 -6 -4 -15
-25 -19 -47 l-7 -40 31 33 c33 36 56 38 58 6 4 -69 3 -67 21 -53 15 12 16 12
7 -1 -5 -8 -11 -58 -14 -110 l-5 -95 -35 -3 c-19 -2 -43 3 -53 10 -41 30 -98
208 -100 313 -3 107 35 155 125 155 38 0 47 -5 87 -47 24 -27 42 -41 39 -33
-3 8 -13 51 -23 95 -21 89 -45 132 -45 78z"/>
<path d="M2935 6895 c-22 -8 -68 -14 -102 -14 -35 -1 -63 -5 -63 -9 0 -14 23
-32 42 -32 10 0 18 -6 18 -14 0 -7 9 -25 20 -39 11 -14 20 -39 20 -57 0 -17
14 -65 30 -107 17 -41 30 -81 30 -89 0 -19 49 -105 69 -120 12 -9 11 -12 -3
-17 -22 -9 -20 -34 4 -54 11 -10 20 -23 20 -30 0 -40 20 3 60 127 25 77 49
138 54 137 5 -2 10 -23 12 -47 5 -57 65 -242 80 -247 7 -2 18 26 29 74 29 134
65 274 98 382 27 92 34 106 59 115 40 15 35 23 -18 31 -78 11 -173 -15 -109
-31 30 -7 31 -15 5 -124 -12 -47 -20 -94 -19 -105 2 -35 -1 -46 -11 -40 -5 3
-10 -3 -10 -14 0 -14 -5 -19 -15 -15 -9 4 -15 19 -15 41 0 33 -24 92 -42 104
-5 3 -12 28 -14 55 -6 62 -21 109 -40 124 -7 7 -14 10 -14 8 0 -55 -56 -254
-80 -285 -17 -22 -18 -22 -48 70 -42 130 -46 153 -28 160 9 4 16 13 16 21 0 8
7 19 16 24 9 5 14 14 10 21 -8 13 -9 13 -61 -4z"/>
<path d="M3575 6844 c-9 -25 -15 -48 -12 -51 3 -3 -3 -14 -13 -25 -35 -38
-110 -217 -110 -262 0 -13 -16 -48 -35 -78 -19 -29 -38 -61 -41 -70 -3 -9 -15
-20 -27 -24 -19 -7 -16 -9 18 -15 22 -4 62 -8 89 -8 48 -1 48 -1 34 21 -13 20
-13 29 6 85 l20 63 66 0 c88 0 93 -5 85 -73 -5 -42 -12 -58 -25 -62 -10 -3
-20 -12 -23 -19 -7 -17 104 -33 192 -27 l25 1 -27 28 c-23 24 -34 57 -67 208
-75 337 -114 415 -155 308z m54 -271 c10 -22 9 -22 -44 -21 -30 1 -55 4 -55 7
0 6 24 70 50 136 12 30 12 30 26 -35 7 -36 18 -75 23 -87z"/>
<path d="M3917 6821 c-4 -15 0 -21 12 -21 24 0 57 -36 39 -43 -11 -3 -11 -8 0
-26 8 -14 9 -27 2 -38 -11 -21 -35 -132 -31 -150 1 -7 -5 -13 -14 -13 -13 0
-15 -6 -10 -30 4 -18 3 -30 -3 -30 -6 0 -4 -13 4 -30 20 -40 3 -106 -32 -122
-13 -6 -24 -14 -24 -17 0 -4 33 -12 73 -19 39 -7 84 -15 100 -18 33 -8 36 10
6 42 -20 21 -21 27 -10 119 5 54 13 100 15 103 11 10 43 -29 54 -66 9 -30 32
-184 32 -214 0 -5 10 -13 23 -18 12 -6 29 -14 37 -19 8 -5 28 -14 43 -20 15
-6 32 -21 37 -33 8 -21 9 -20 9 10 1 18 -4 42 -9 53 -16 30 -32 110 -30 156 1
45 -10 75 -42 109 -18 21 -18 21 20 48 48 33 62 62 62 127 0 119 -73 167 -271
176 -81 4 -87 3 -92 -16z m256 -72 c20 -25 22 -64 3 -100 -8 -15 -10 -32 -6
-40 11 -17 -56 -47 -104 -46 -34 1 -54 17 -21 17 8 0 15 3 15 8 0 31 21 175
26 183 10 17 67 2 87 -22z"/>
<path d="M1992 6751 c-47 -9 -141 -86 -163 -135 -11 -24 -19 -64 -19 -98 0
-48 4 -59 22 -72 18 -13 19 -16 5 -16 -21 0 -21 6 3 -59 20 -55 73 -122 94
-118 6 1 10 -4 8 -12 -6 -30 93 -80 161 -81 26 0 61 7 76 14 39 21 86 77 102
123 22 61 17 168 -11 247 -49 137 -170 227 -278 207z m83 -102 c19 -17 35 -37
35 -45 0 -8 5 -14 12 -14 9 0 9 -3 1 -11 -16 -16 7 -57 37 -65 21 -6 22 -8 7
-11 -16 -4 -17 -11 -12 -46 4 -23 11 -49 16 -58 15 -29 21 -113 10 -142 -21
-54 -85 -54 -135 2 -11 12 -30 21 -43 21 -21 0 -24 4 -22 28 1 15 -9 50 -23
78 -42 80 -62 171 -49 216 24 79 103 102 166 47z"/>
<path d="M4472 6722 c-13 -2 -27 -13 -31 -25 -23 -63 -40 -122 -35 -126 2 -3
22 13 44 34 36 35 42 37 71 29 42 -12 61 -41 37 -55 -10 -6 -18 -18 -18 -29 0
-10 -16 -49 -35 -86 -19 -37 -35 -77 -35 -90 0 -13 -8 -32 -19 -43 -10 -10
-26 -40 -36 -67 -20 -55 -41 -77 -66 -69 -29 9 -32 -24 -3 -35 14 -6 27 -10
30 -10 3 0 41 -16 85 -36 43 -21 82 -35 84 -32 3 2 0 31 -6 63 -14 75 -4 146
21 152 13 3 33 43 68 131 27 70 51 133 53 139 3 10 13 9 39 -5 33 -16 35 -20
38 -74 3 -61 18 -77 27 -30 11 52 28 97 47 125 22 30 18 47 -6 28 -12 -10 -26
-9 -69 3 -30 9 -64 17 -75 19 -12 2 -29 12 -37 23 -10 13 -14 14 -15 5 0 -10
-4 -11 -12 -3 -7 6 -33 18 -58 28 -25 10 -49 23 -55 29 -5 6 -20 9 -33 7z"/>
<path d="M1593 6559 c-3 -12 -9 -16 -12 -10 -8 12 -161 -64 -161 -80 0 -5 16
-9 35 -9 27 0 42 -8 65 -32 17 -18 33 -44 37 -58 3 -14 12 -34 19 -45 12 -18
8 -25 -37 -69 -46 -45 -52 -48 -74 -36 -13 7 -26 22 -29 35 -3 12 -18 35 -33
51 -22 23 -27 38 -26 77 0 31 -3 47 -12 47 -17 0 -66 -40 -60 -50 2 -4 -11
-10 -29 -13 -42 -7 -86 -34 -86 -54 0 -11 7 -13 29 -8 28 6 33 2 66 -49 27
-39 45 -57 67 -61 23 -6 27 -9 17 -21 -9 -11 -4 -23 25 -58 20 -24 36 -48 36
-53 0 -5 18 -40 41 -78 32 -56 38 -73 30 -87 -13 -21 -14 -48 -3 -48 5 0 19
10 32 23 14 12 27 22 30 22 10 0 130 89 130 96 0 15 -20 20 -40 9 -17 -9 -22
-7 -30 14 -5 14 -20 32 -33 41 -23 15 -66 81 -57 88 44 34 112 79 114 76 2 -2
24 -38 49 -79 40 -66 44 -77 31 -91 -8 -8 -14 -26 -14 -38 0 -23 0 -23 28 -5
15 10 62 38 105 62 59 33 75 47 68 56 -6 7 -24 11 -39 8 -25 -3 -32 2 -54 40
-15 23 -40 58 -57 75 -17 18 -31 37 -31 42 0 10 -79 153 -89 161 -3 3 -14 19
-23 36 -17 30 -17 33 2 57 25 32 25 37 -1 37 -13 0 -23 -8 -26 -21z"/>
<path d="M4888 6429 c-31 -31 -38 -46 -38 -77 0 -21 -6 -47 -14 -57 -12 -16
-12 -22 1 -41 10 -16 11 -23 2 -26 -8 -3 -3 -21 15 -56 41 -82 30 -159 -26
-183 -26 -10 -35 -10 -57 2 -24 14 -26 20 -26 84 0 39 4 84 8 100 6 23 5 27
-4 15 -8 -11 -9 -5 -5 28 4 23 3 42 -1 42 -8 0 -63 -82 -63 -94 0 -4 -18 -31
-40 -61 -22 -30 -40 -57 -40 -60 0 -4 20 -3 44 0 40 6 45 5 51 -17 16 -57 30
-80 56 -93 36 -19 82 -19 118 0 45 23 120 112 127 151 12 64 -16 194 -42 194
-12 0 -13 10 -8 53 6 54 30 87 64 87 41 0 59 -31 61 -105 1 -38 -2 -79 -6 -90
-5 -13 7 -6 34 20 22 21 41 43 41 48 0 5 12 23 26 40 26 31 18 51 -11 27 -19
-16 -35 -4 -35 26 0 35 -42 74 -82 75 -18 1 -51 3 -73 4 -34 1 -45 -4 -77 -36z"/>
<path d="M1014 6308 l-29 -33 33 29 c30 28 37 36 29 36 -2 0 -16 -15 -33 -32z"/>
<path d="M2840 6210 c-174 -14 -362 -39 -492 -66 -290 -61 -579 -195 -763
-355 -103 -89 -100 -92 8 -6 110 89 299 194 453 252 549 207 1656 205 2302 -5
150 -48 233 -96 407 -231 44 -34 73 -55 65 -46 -40 42 -223 181 -288 218 -165
95 -476 173 -872 220 -200 23 -632 33 -820 19z"/>
<path d="M1523 5318 c-17 -18 -36 -44 -43 -58 -11 -21 -7 -20 27 11 78 71 116
62 89 -19 -32 -94 -144 -241 -249 -323 -57 -45 -54 -50 6 -13 73 46 221 205
256 276 34 69 43 134 20 149 -31 19 -74 10 -106 -23z"/>
<path d="M5788 5104 c-3 -3 10 -31 28 -62 48 -78 66 -148 73 -277 l7 -110 8
80 c15 137 -11 255 -76 348 -19 27 -29 32 -40 21z"/>
<path d="M615 5073 c-65 -65 -97 -193 -79 -319 8 -58 8 -58 14 51 7 122 24
175 79 237 49 56 38 82 -14 31z"/>
<path d="M552 4670 c0 -14 2 -19 5 -12 2 6 2 18 0 25 -3 6 -5 1 -5 -13z"/>
<path d="M2050 5461 c-63 -22 -92 -52 -229 -231 -134 -176 -405 -569 -397
-577 2 -3 53 -11 113 -18 143 -18 196 -38 254 -94 35 -34 51 -60 63 -100 55
-186 45 -496 -24 -750 -46 -169 -89 -263 -217 -474 -184 -303 -283 -418 -435
-502 -49 -27 -88 -51 -87 -54 0 -3 44 -40 97 -81 137 -106 328 -300 394 -401
69 -104 87 -145 124 -282 18 -68 33 -107 41 -105 6 2 59 45 116 96 58 50 107
92 110 92 2 0 49 -45 103 -101 197 -200 290 -253 629 -358 72 -22 150 -53 175
-69 63 -40 146 -125 172 -175 12 -23 52 -147 89 -276 l67 -234 -86 7 c-224 17
-514 110 -781 252 -115 61 -281 165 -281 176 0 4 13 14 29 23 69 35 81 102 29
161 -70 80 -410 339 -607 463 -141 89 -190 126 -279 214 -132 129 -231 306
-267 476 -16 77 -19 285 -6 379 4 28 4 52 0 52 -12 0 -120 -121 -157 -178
l-36 -54 -26 32 c-28 38 -210 193 -217 186 -7 -6 45 -357 73 -495 40 -195 84
-296 210 -484 151 -223 228 -300 499 -495 22 -16 91 -66 152 -111 l112 -82
-39 -38 c-34 -32 -40 -44 -40 -80 0 -57 37 -126 102 -190 69 -69 132 -113 372
-261 319 -195 521 -288 760 -350 356 -92 792 -73 1142 52 177 62 570 270 779
412 121 82 289 248 305 302 17 57 -5 102 -66 136 l-46 25 119 71 c177 105 274
181 413 321 196 198 360 432 430 612 93 242 106 525 32 713 l-19 49 -12 -49
c-14 -56 -65 -155 -91 -179 -16 -15 -19 -13 -43 28 -15 25 -58 78 -96 118
l-70 74 -1 -136 c0 -298 -93 -566 -261 -760 -78 -89 -200 -186 -520 -411 -252
-178 -419 -377 -395 -472 3 -14 22 -36 42 -49 l35 -24 -48 -40 c-65 -55 -202
-143 -293 -188 -156 -78 -415 -158 -616 -189 -108 -17 -224 -21 -224 -8 0 4
31 112 68 240 77 258 100 305 194 384 72 62 128 88 293 137 275 83 375 141
559 323 132 131 117 127 194 57 21 -19 65 -58 99 -87 l62 -53 11 43 c29 111
65 218 90 268 67 132 225 307 435 480 55 46 101 86 103 90 2 4 -32 28 -75 53
-43 25 -96 58 -119 75 -76 55 -203 229 -362 497 -159 267 -232 535 -232 851 0
230 24 335 93 402 61 60 120 82 256 96 76 8 115 16 114 23 -6 26 -293 438
-424 608 -121 156 -146 179 -223 200 -147 40 -277 -5 -409 -143 -187 -196
-201 -208 -262 -231 -79 -30 -143 -41 -231 -41 -93 0 -113 -8 -183 -75 l-57
-55 -45 46 c-61 64 -107 83 -199 84 -166 1 -298 53 -378 150 -100 119 -195
206 -265 240 -88 43 -192 51 -277 21z m267 -60 c64 -35 124 -88 241 -219 54
-61 88 -88 135 -112 77 -38 179 -60 278 -60 88 0 111 -12 194 -99 l51 -53 38
47 c22 26 57 60 79 76 36 26 48 29 121 29 178 1 297 47 396 153 206 222 266
265 385 275 95 7 163 -17 215 -76 66 -73 225 -289 364 -492 143 -207 141 -192
23 -204 -103 -10 -173 -40 -233 -101 -59 -59 -76 -103 -95 -244 -17 -123 -6
-379 21 -515 53 -268 128 -431 357 -779 108 -163 208 -269 301 -322 40 -22 71
-44 71 -50 0 -5 -32 -35 -72 -65 -102 -79 -294 -273 -356 -360 -72 -103 -106
-172 -137 -284 l-27 -95 -61 52 c-34 28 -83 71 -109 95 l-48 44 -110 -116
c-191 -200 -305 -269 -579 -351 -187 -56 -253 -90 -335 -171 -77 -76 -107
-138 -165 -342 -24 -84 -47 -149 -50 -145 -4 5 -26 76 -49 158 -56 202 -84
257 -173 340 -83 79 -139 107 -318 160 -176 51 -262 88 -355 150 -82 54 -233
194 -297 274 l-36 45 -110 -98 -111 -97 -16 58 c-30 108 -38 128 -70 193 -71
142 -221 312 -418 474 -75 62 -94 82 -86 93 7 7 16 13 20 13 24 0 143 87 189
137 109 119 312 431 395 608 117 247 173 571 147 847 -19 199 -50 272 -145
332 -61 39 -103 53 -206 66 -41 6 -76 12 -79 14 -12 13 430 627 501 694 74 71
215 81 324 23z m3303 -2563 c21 -32 42 -72 45 -88 4 -17 10 -30 14 -30 8 0 64
72 107 139 l28 43 8 -28 c14 -49 10 -254 -7 -342 -18 -92 -64 -230 -103 -307
-103 -205 -344 -505 -516 -643 -68 -54 -104 -77 -295 -188 -106 -61 -185 -133
-217 -195 -37 -74 -29 -75 35 -7 l58 62 42 -13 c51 -15 81 -43 81 -74 0 -31
-88 -132 -175 -203 -194 -158 -679 -425 -913 -503 -183 -61 -315 -82 -549 -88
-312 -8 -503 24 -765 127 -174 69 -497 251 -748 420 -124 84 -219 206 -204
264 5 22 55 56 82 56 13 0 102 -96 102 -111 0 -6 -16 3 -36 21 -65 57 -114 63
-114 15 0 -43 40 -103 84 -127 13 -7 9 2 -12 28 -17 22 -36 51 -41 67 -16 42
7 35 59 -19 58 -59 94 -78 137 -71 36 6 109 55 157 105 l28 30 92 -62 c207
-143 493 -277 729 -341 344 -93 623 -79 1016 51 239 78 396 162 570 302 35 29
70 52 78 52 14 0 24 -9 96 -89 30 -33 44 -41 73 -41 44 0 84 21 140 72 25 23
47 38 50 35 9 -9 -13 -42 -51 -76 -47 -41 -32 -39 27 4 47 34 66 70 54 100 -9
25 -33 17 -116 -39 -56 -39 -85 -53 -100 -49 -12 3 -39 29 -61 58 -22 29 -52
58 -67 64 -15 6 -53 20 -84 31 -36 13 -59 28 -63 41 -11 34 35 108 129 207 92
96 145 139 302 247 402 276 549 426 645 655 61 145 83 238 105 453 3 35 9 55
16 51 5 -4 27 -33 48 -66z m-4876 -160 l32 -47 23 47 c25 53 83 142 92 142 3
0 4 -22 1 -49 -6 -67 15 -239 40 -320 47 -154 126 -280 257 -412 75 -75 137
-122 288 -222 289 -191 598 -430 621 -482 15 -33 -8 -61 -74 -90 -30 -13 -78
-46 -107 -73 -95 -88 -137 -105 -137 -55 0 31 -38 100 -72 128 -96 81 -181
145 -426 320 -107 76 -182 139 -250 210 -186 193 -331 441 -377 645 -18 82
-65 373 -65 405 0 15 14 6 61 -40 33 -33 75 -81 93 -107z"/>
<path d="M4201 5398 c-68 -12 -146 -65 -225 -152 -39 -44 -94 -103 -121 -130
-88 -89 -215 -136 -363 -136 -107 0 -136 -14 -214 -102 l-62 -69 -73 76 c-40
41 -84 80 -99 85 -14 6 -62 10 -108 10 -170 0 -292 53 -400 175 -174 195 -248
245 -367 245 -116 0 -132 -12 -274 -195 -88 -115 -311 -431 -334 -474 -10 -18
-8 -21 26 -26 157 -25 254 -79 308 -171 84 -144 88 -546 9 -853 -53 -205 -135
-368 -332 -666 -115 -174 -212 -280 -300 -331 l-53 -31 86 -73 c248 -208 417
-433 456 -605 7 -30 15 -55 19 -55 4 0 51 39 105 86 l99 86 55 -63 c85 -100
220 -226 293 -275 89 -59 151 -86 331 -140 213 -65 265 -91 359 -184 91 -90
124 -153 158 -305 13 -55 26 -106 29 -113 4 -6 20 41 35 105 16 65 37 136 46
158 28 64 103 157 167 204 75 56 131 81 298 131 210 64 280 97 398 187 68 53
193 177 245 246 20 26 39 47 43 47 3 0 17 -10 30 -23 13 -12 58 -53 100 -90
l76 -67 18 68 c53 196 216 405 493 632 23 19 42 38 42 42 0 4 -19 17 -42 29
-124 63 -371 397 -532 717 -165 328 -216 894 -102 1120 48 95 156 163 290 182
32 5 60 10 62 12 9 10 -329 481 -439 610 -62 73 -130 95 -236 76z m-1915 -132
c28 -19 76 -63 105 -98 180 -211 293 -272 524 -284 l100 -6 72 -76 73 -77 0
-352 0 -353 55 0 55 0 0 355 0 355 71 75 72 75 67 0 c181 0 350 66 454 178
221 237 261 264 354 246 43 -8 52 -16 120 -99 84 -103 297 -401 297 -415 0 -5
-33 -25 -73 -45 -204 -98 -270 -265 -259 -655 5 -198 22 -314 67 -470 15 -52
29 -102 31 -110 3 -12 -8 -16 -50 -18 -52 -3 -53 -2 -47 20 17 59 18 129 2
201 -11 50 -15 92 -10 126 22 167 -67 301 -201 300 -27 0 -67 -6 -88 -13 -78
-28 -157 -112 -177 -187 -8 -27 -20 -44 -40 -54 -33 -17 -46 -53 -56 -152 -7
-61 -6 -62 20 -69 14 -3 35 -4 45 -1 14 3 21 -4 30 -33 17 -56 65 -117 105
-131 20 -7 36 -17 36 -21 0 -4 -51 -9 -112 -9 -62 -1 -120 -2 -128 -3 -18 -1
-24 -36 -15 -84 l6 -34 142 6 c78 4 187 8 242 11 55 3 156 7 225 11 l126 6 12
-27 c16 -35 15 -37 -8 -30 -33 10 -98 8 -129 -5 -37 -15 -50 -50 -58 -152 -7
-86 -24 -113 -79 -124 -29 -5 -33 -2 -59 42 -38 65 -111 142 -157 165 -45 23
-119 25 -178 4 -63 -22 -96 -20 -104 8 -20 74 2 449 34 573 l20 75 -48 58
c-26 32 -56 70 -67 85 l-20 27 -60 -30 c-95 -48 -145 -55 -415 -54 -227 0
-250 2 -310 22 -36 13 -80 32 -99 44 l-35 21 -20 -29 c-12 -15 -43 -54 -69
-86 l-49 -59 16 -47 c29 -88 40 -206 40 -433 1 -232 -12 -368 -41 -451 l-16
-46 49 -60 c27 -33 58 -72 69 -86 l20 -27 73 36 c70 35 81 37 229 47 108 7
202 7 312 0 148 -10 162 -12 227 -44 38 -19 72 -35 76 -37 3 -2 21 18 39 45
18 26 48 64 67 85 l35 39 -17 52 c-22 66 -32 147 -19 147 26 0 74 -24 84 -41
5 -11 10 -46 10 -79 1 -59 0 -60 -55 -116 -31 -32 -70 -79 -88 -105 -19 -27
-41 -49 -51 -49 -10 0 -44 14 -77 30 -71 36 -86 37 -101 9 -35 -66 -23 -343
25 -575 15 -70 28 -174 32 -250 8 -172 24 -212 69 -167 12 11 16 29 13 60 -3
39 -1 43 19 43 25 0 29 10 38 102 6 59 9 67 28 70 19 3 23 11 28 71 5 59 10
72 39 102 l33 34 28 -57 c16 -31 29 -69 29 -85 0 -15 -20 -67 -44 -115 -52
-103 -72 -165 -81 -243 l-6 -56 -92 -27 c-139 -42 -227 -89 -312 -167 -40 -38
-76 -69 -79 -69 -3 0 -6 308 -6 685 l0 685 -55 0 -55 0 0 -690 c0 -379 -2
-690 -5 -690 -3 0 -21 18 -41 40 -75 83 -224 173 -322 194 -17 4 -34 11 -37
15 -2 4 27 29 64 55 91 62 121 93 121 125 0 14 -12 64 -25 110 -14 47 -25 94
-25 106 0 25 29 65 36 49 3 -6 20 -35 38 -65 19 -30 48 -78 65 -107 54 -91 86
-80 76 26 -7 76 -16 102 -54 150 -26 34 -29 46 -35 143 -10 190 -55 261 -276
447 -138 115 -236 175 -310 187 -27 5 -46 15 -56 31 -28 42 -15 49 82 49 99 0
139 16 150 59 8 34 -14 69 -99 161 l-74 80 -76 0 c-68 0 -80 -3 -118 -30 -51
-36 -134 -143 -180 -232 -59 -112 -116 -144 -193 -108 -45 22 -65 62 -77 156
-10 78 -9 83 15 119 13 20 41 69 61 110 l37 73 161 -7 c89 -4 196 -9 237 -11
41 -2 139 -7 216 -10 l141 -7 6 23 c4 13 4 72 0 131 -5 95 -8 108 -24 108 -25
0 -89 58 -89 80 0 10 6 20 13 23 8 3 27 30 42 60 29 55 29 56 12 92 -9 19 -17
40 -17 45 0 5 20 32 45 60 25 28 57 69 72 91 31 46 52 49 114 15 58 -33 139
-53 222 -55 54 -2 67 1 67 13 0 22 -62 66 -93 66 -15 0 -46 9 -69 19 -24 11
-51 22 -61 25 -18 6 -21 38 -3 36 27 -5 35 79 12 134 -7 18 -26 43 -42 55 -30
24 -53 57 -54 79 0 8 19 12 64 12 45 0 69 5 80 16 18 18 18 17 10 38 -3 9 -14
16 -24 16 -30 0 -50 11 -50 27 0 12 8 13 39 8 48 -8 71 12 71 61 0 31 -4 37
-42 54 -24 10 -60 36 -80 57 -124 129 -110 119 -182 126 -74 7 -158 -5 -192
-28 -21 -13 -54 -67 -54 -87 0 -6 -9 -21 -20 -35 -21 -27 -27 -48 -10 -38 15
9 12 0 -11 -39 -12 -21 -16 -36 -10 -36 8 0 9 -6 2 -19 -16 -30 -5 -173 13
-183 34 -19 9 -178 -42 -273 -21 -38 -33 -51 -54 -53 -21 -3 -30 3 -42 27 -24
46 -19 92 23 219 57 167 74 263 69 385 -3 80 -9 111 -26 144 -60 115 -228 133
-248 27 -5 -29 3 -65 40 -173 25 -75 46 -146 46 -159 0 -38 16 -24 44 37 28
62 34 127 15 164 -6 12 -29 38 -50 58 -44 41 -49 63 -19 79 25 14 65 -4 91
-40 28 -39 39 -135 28 -247 -12 -115 -19 -145 -64 -274 -61 -173 -55 -273 20
-372 37 -48 42 -74 24 -126 -13 -36 -35 -51 -76 -51 -52 0 -55 -7 -44 -114 7
-68 16 -107 31 -131 20 -33 21 -35 3 -36 -10 -1 -21 -1 -24 -1 -3 1 -52 2
-108 3 -90 1 -102 4 -97 18 125 379 141 843 36 1050 -46 92 -157 183 -263 215
-16 5 -11 17 39 89 62 89 271 368 303 404 47 54 134 54 217 -1z m550 -587 c10
-17 -13 -36 -27 -22 -12 12 -4 33 11 33 5 0 12 -5 16 -11z m3 -708 c68 -35
154 -43 428 -39 257 3 258 4 327 32 l70 29 38 -44 c29 -33 37 -50 33 -69 -29
-145 -38 -246 -39 -448 -2 -217 -3 -223 -24 -238 -29 -20 -28 -28 5 -40 24 -8
28 -17 39 -79 27 -150 28 -136 -14 -183 l-39 -44 -31 16 c-70 36 -152 46 -404
47 -253 0 -337 -9 -410 -47 l-31 -16 -38 44 c-29 32 -38 50 -35 68 42 240 52
421 36 640 -6 85 -18 188 -26 228 l-15 73 37 44 c20 25 41 45 46 45 5 0 26 -9
47 -19z m1370 -17 c12 -15 21 -35 21 -45 0 -15 -4 -16 -37 -7 -21 6 -57 7 -80
4 -24 -3 -43 -3 -43 1 0 4 14 22 32 40 40 41 78 44 107 7z m-34 -186 c14 -6
25 -17 25 -25 0 -38 -64 -93 -108 -93 -30 0 -74 39 -70 63 4 27 63 67 99 67
15 0 40 -5 54 -12z m-1748 -115 c7 -16 39 -59 72 -98 33 -38 60 -73 61 -77 0
-5 -36 -8 -79 -8 -79 0 -79 0 -86 28 -6 29 -33 53 -89 82 -28 15 -63 56 -54
65 5 5 124 32 148 34 9 1 21 -11 27 -26z m1868 -109 c-8 -54 -27 -64 -113 -64
l-57 1 57 29 c31 16 69 46 84 66 32 41 39 33 29 -32z m-315 -329 c9 -11 10
-19 3 -26 -15 -15 -54 7 -47 26 8 19 28 19 44 0z m-1551 -79 c9 -10 9 -16 1
-21 -12 -7 -40 11 -40 26 0 14 26 10 39 -5z m-709 -171 c0 -53 34 -118 88
-171 61 -59 90 -66 163 -40 36 13 36 12 48 -19 23 -64 3 -131 -56 -187 -56
-53 -194 -95 -271 -83 -26 4 -66 8 -89 9 -37 2 -50 10 -128 85 l-86 82 58 57
c59 57 181 213 224 286 21 36 23 37 36 20 7 -10 13 -27 13 -39z m3142 -132
c36 -49 91 -112 121 -141 l56 -52 -47 -43 c-25 -23 -83 -79 -127 -124 -45 -46
-84 -83 -87 -83 -3 0 -8 60 -12 133 -5 100 -2 164 11 265 10 72 18 132 19 132
0 0 30 -39 66 -87z m-498 -295 c8 -13 22 -52 31 -88 25 -96 46 -125 103 -140
124 -32 126 -33 139 -72 11 -33 10 -43 -13 -93 -21 -46 -28 -53 -42 -46 -28
15 -119 115 -126 139 -10 31 -17 28 -51 -23 -20 -31 -37 -45 -52 -45 -12 0
-46 -19 -75 -43 -85 -69 -82 -68 -75 -1 3 32 12 63 20 69 34 25 90 191 103
304 7 66 15 74 38 39z m-2080 -135 c44 -37 106 -92 136 -123 35 -37 77 -67
118 -86 l62 -28 0 -58 c0 -66 -17 -115 -50 -146 -16 -15 -42 -22 -103 -27 -45
-4 -98 -14 -117 -22 l-35 -14 -92 95 c-51 53 -118 132 -148 176 -31 44 -60 82
-65 85 -5 3 -18 -12 -29 -33 -17 -33 -128 -141 -134 -131 -2 2 -13 28 -26 56
-14 29 -36 70 -50 92 -21 31 -26 48 -23 85 5 54 -17 46 215 75 136 16 176 25
210 45 23 13 44 24 46 25 2 1 40 -29 85 -66z m1827 -468 c-11 -22 -22 -48 -25
-57 -5 -16 -105 -88 -122 -88 -4 0 -4 18 -1 40 5 38 71 156 131 235 l31 39 3
-64 c3 -50 -1 -74 -17 -105z m-1331 64 c0 -17 10 -53 21 -80 21 -49 21 -50 3
-64 -10 -7 -45 -21 -77 -31 -31 -9 -79 -32 -106 -49 l-49 -33 -54 22 c-78 32
-96 44 -78 49 156 48 284 106 294 132 3 9 6 26 6 36 0 28 19 61 31 54 5 -4 9
-20 9 -36z"/>
<path d="M3955 4946 c-27 -7 -81 -29 -120 -50 -49 -25 -90 -39 -136 -44 -89
-11 -115 -30 -151 -110 -16 -37 -39 -85 -50 -108 -16 -32 -19 -51 -14 -84 6
-38 4 -45 -29 -81 -25 -28 -35 -49 -35 -72 0 -17 -3 -43 -7 -57 -6 -21 -4 -23
9 -13 11 10 17 10 26 1 9 -9 12 -8 12 4 0 9 -4 20 -10 23 -22 14 -10 64 28
108 32 38 44 45 87 50 88 11 185 68 283 166 126 126 189 145 271 82 32 -25 42
-121 17 -169 -24 -47 -62 -68 -235 -131 -169 -62 -249 -107 -307 -175 -43 -48
-102 -167 -111 -221 l-6 -38 34 7 c19 3 62 20 95 36 74 36 97 37 117 8 l15
-23 7 30 c15 60 56 116 112 151 30 20 120 69 201 109 209 105 261 160 270 286
9 122 -48 239 -143 294 -53 32 -155 41 -230 21z m-265 -254 c0 -14 -38 -44
-50 -40 -6 2 -2 12 10 26 21 22 40 29 40 14z"/>
<path d="M3080 3829 c-13 -6 -32 -17 -40 -24 -14 -13 -23 -12 -68 7 -40 17
-58 20 -79 12 -37 -13 -58 -52 -49 -90 l8 -29 13 31 c16 39 32 49 50 34 21
-17 33 -69 44 -185 l9 -100 -38 -35 c-40 -37 -60 -82 -60 -134 l0 -31 16 32
c18 36 61 83 76 83 15 0 5 -290 -10 -317 -23 -41 -47 -28 -42 20 1 16 -2 17
-19 7 -27 -14 -29 -70 -3 -93 25 -23 60 -21 101 4 31 19 35 19 66 5 44 -21 67
-20 99 5 20 16 26 29 25 57 l-1 37 -9 -32 c-6 -22 -16 -33 -28 -33 -36 0 -59
100 -61 266 l-2 109 38 -2 c43 -3 84 -27 91 -54 5 -17 7 -17 37 5 34 25 54 34
104 46 l32 8 0 -72 c0 -99 -18 -233 -36 -267 -18 -37 -41 -37 -56 -1 -9 23
-12 24 -16 8 -6 -27 16 -63 48 -76 21 -9 36 -8 71 4 41 14 46 14 88 -6 33 -16
50 -19 70 -12 31 11 50 57 35 81 -16 25 -34 27 -34 4 0 -28 -19 -36 -38 -17
-14 14 -18 45 -20 190 l-4 174 35 11 c50 17 79 52 75 91 -3 38 -26 57 -54 46
-18 -8 -18 -9 4 -17 23 -9 26 -17 14 -36 -10 -16 -60 -34 -67 -24 -6 11 13
167 26 208 10 32 33 48 51 37 5 -4 16 -20 24 -38 l13 -31 0 40 c1 46 -5 57
-36 74 -31 16 -53 14 -97 -9 l-39 -19 -31 22 c-35 25 -95 29 -120 8 -9 -7 -16
-27 -16 -42 0 -23 6 -32 26 -40 33 -12 44 -4 19 15 -21 15 -12 36 15 36 38 0
50 -37 50 -157 l0 -112 -45 16 c-25 8 -59 28 -76 44 l-31 29 -19 -24 c-20 -25
-97 -66 -125 -66 -15 0 -16 14 -12 120 3 98 7 123 23 140 21 24 38 25 54 6 10
-11 7 -17 -11 -30 -21 -15 -21 -16 -3 -16 55 1 72 55 29 89 -29 23 -46 25 -84
10z"/>
<path d="M5571 2516 c-14 -17 1 -61 24 -70 28 -10 42 -7 73 19 31 26 57 32 66
16 10 -16 -5 -40 -32 -50 -19 -6 -21 -10 -9 -10 32 -2 57 18 57 46 0 54 -60
69 -109 27 -31 -26 -61 -27 -61 -1 0 8 10 19 23 25 22 11 22 11 1 11 -12 1
-27 -5 -33 -13z"/>
<path d="M5542 2423 c-16 -28 -15 -34 2 -27 16 6 120 -39 131 -56 12 -19 -4
-60 -23 -60 -31 0 -122 48 -122 65 0 8 -4 15 -10 15 -5 0 -10 -9 -10 -19 0
-11 -4 -23 -10 -26 -17 -10 -11 -23 8 -18 10 2 40 -7 67 -21 57 -31 77 -32 97
-8 43 49 29 81 -51 122 -33 16 -61 35 -63 42 -3 8 -9 5 -16 -9z"/>
<path d="M5434 2216 c-30 -30 -49 -87 -24 -71 10 6 80 -35 112 -67 l21 -21 24
29 c47 58 40 108 -19 144 -47 29 -75 25 -114 -14z m113 -30 c34 -31 36 -36 25
-60 -17 -39 -21 -37 -119 40 -24 19 -24 21 -9 37 27 26 63 20 103 -17z"/>
<path d="M5362 2108 c-16 -16 -15 -29 2 -22 8 3 31 -10 53 -30 l38 -36 -77 6
c-56 5 -82 3 -93 -6 -20 -17 -19 -30 3 -30 21 0 114 -88 106 -101 -8 -13 10
-11 24 3 16 16 15 28 0 28 -7 0 -31 16 -53 35 l-40 35 80 -1 c44 0 86 0 94 0
8 1 -17 30 -55 66 -38 36 -69 65 -69 65 -1 0 -6 -5 -13 -12z"/>
<path d="M5200 1935 c0 -3 4 -13 10 -23 13 -23 62 -130 77 -167 l11 -30 9 24
c8 19 5 28 -14 48 -29 28 -27 57 5 61 15 2 25 -3 30 -17 7 -19 7 -20 32 -1 14
10 23 20 20 22 -16 10 -169 88 -174 88 -3 0 -6 -2 -6 -5z m68 -81 c-4 -3 -12
5 -18 18 -12 22 -12 22 6 6 10 -10 15 -20 12 -24z"/>
<path d="M5078 1825 c-30 -26 -36 -39 -15 -32 6 2 31 -21 54 -51 34 -43 42
-59 37 -81 l-7 -26 22 27 c12 15 37 36 57 48 20 13 34 29 32 38 -4 20 -28 28
-28 9 0 -14 -37 -54 -44 -46 -67 75 -86 103 -81 120 8 24 6 24 -27 -6z"/>
<path d="M4943 1724 c-18 -16 -22 -24 -10 -20 9 3 17 2 17 -2 0 -4 12 -20 26
-37 36 -42 56 -82 44 -90 -6 -3 -10 -10 -10 -16 0 -5 20 7 45 26 25 19 53 38
61 43 16 9 10 38 -10 45 -7 3 -12 -3 -12 -15 1 -11 -8 -26 -20 -34 -19 -13
-23 -10 -62 43 -32 43 -39 60 -31 70 21 24 -8 14 -38 -13z"/>
<path d="M4860 1675 c-18 -10 -20 -14 -8 -15 18 0 88 -107 88 -133 0 -14 3
-14 30 1 16 9 24 19 17 21 -23 8 -91 117 -81 132 8 14 -18 10 -46 -6z"/>
<path d="M4810 1648 c0 -9 -8 -19 -19 -23 -10 -3 -29 -14 -41 -25 -12 -10 -26
-20 -31 -22 -7 -2 -6 -12 0 -28 10 -25 10 -25 10 -2 1 34 30 40 53 11 39 -49
67 -114 57 -132 -13 -23 2 -22 35 4 28 22 34 39 14 39 -11 0 -98 119 -98 133
0 12 34 16 46 6 20 -17 17 2 -6 31 -15 19 -20 21 -20 8z"/>
<path d="M4645 1530 c-17 -11 -24 -20 -15 -20 16 -1 76 -75 97 -119 7 -14 12
-21 13 -15 0 6 10 16 23 22 14 7 16 11 7 12 -19 1 -96 107 -92 126 4 18 3 18
-33 -6z"/>
<path d="M4560 1480 c0 -8 -18 -35 -40 -59 -38 -41 -39 -44 -24 -65 l16 -21
-6 21 c-4 13 -1 26 9 34 12 10 23 5 62 -28 72 -60 96 -89 90 -106 -11 -27 8
-18 26 13 20 34 22 52 4 46 -16 -7 -149 103 -144 119 2 6 16 11 31 11 25 -1
26 0 10 12 -10 7 -21 19 -26 25 -6 10 -8 9 -8 -2z"/>
<path d="M4411 1051 c-22 -17 -23 -21 -12 -49 7 -16 11 -40 9 -52 -3 -21 -5
-21 -42 14 -45 40 -44 40 -68 22 -20 -15 -24 -27 -7 -24 16 4 79 -101 79 -129
0 -27 7 -28 34 -8 17 13 18 15 3 15 -10 0 -27 20 -43 52 l-26 52 53 -44 52
-45 -6 50 c-3 28 -9 59 -12 70 -4 11 7 -2 25 -29 17 -26 29 -54 26 -62 -7 -18
4 -18 32 2 22 15 22 16 4 32 -31 27 -82 120 -76 137 8 19 4 19 -25 -4z"/>
<path d="M2024 1044 c7 -17 -14 -59 -56 -115 l-28 -36 43 -23 c30 -16 52 -21
70 -17 34 9 68 58 74 107 5 35 2 43 -27 70 -35 33 -87 42 -76 14z m74 -47 c11
-23 10 -31 -11 -64 -13 -21 -31 -44 -40 -51 -20 -17 -51 -12 -55 9 -4 20 68
140 82 136 6 -2 17 -15 24 -30z"/>
<path d="M2177 938 c-16 -6 -35 -25 -47 -49 -56 -110 25 -189 106 -103 33 35
39 53 35 104 -2 26 -34 61 -55 59 -6 0 -23 -5 -39 -11z m56 -29 c25 -39 -26
-143 -66 -137 -32 5 -37 45 -10 99 28 60 54 72 76 38z"/>
<path d="M4190 908 c0 -7 9 -53 20 -102 11 -50 20 -101 20 -115 l1 -26 19 24
c17 20 18 25 6 35 -20 16 -30 67 -15 77 20 12 52 -10 46 -32 -6 -22 11 -25 36
-6 16 11 11 19 -53 85 -38 39 -72 72 -75 72 -3 0 -5 -6 -5 -12z m50 -79 c0 -5
-4 -9 -10 -9 -5 0 -10 7 -10 16 0 8 5 12 10 9 6 -3 10 -10 10 -16z"/>
<path d="M2320 858 c-8 -18 -15 -35 -15 -38 -5 -24 -62 -120 -72 -120 -7 0
-13 -4 -13 -10 0 -5 9 -10 19 -10 11 0 26 -3 34 -6 12 -4 14 0 10 14 -7 27 36
110 47 91 5 -7 6 -33 3 -56 -5 -35 -3 -43 10 -43 8 0 17 -6 20 -12 2 -7 2 11
-1 39 -4 49 -2 55 27 82 37 35 38 45 6 76 -33 34 -57 32 -75 -7z m61 -37 c-7
-11 -21 -21 -31 -21 -24 0 -24 3 -4 42 14 27 17 29 31 15 12 -11 13 -19 4 -36z"/>
<path d="M4110 869 c-23 -9 -23 -11 -7 -20 25 -15 69 -106 65 -137 -2 -21 -8
-27 -26 -27 -19 0 -30 12 -53 55 -17 31 -28 65 -26 78 2 12 3 22 2 22 -1 0
-17 -8 -35 -17 -26 -13 -30 -18 -17 -22 9 -3 31 -35 49 -71 28 -54 38 -66 61
-68 32 -4 67 21 67 48 0 10 -14 47 -31 84 -17 36 -28 70 -24 76 7 12 7 12 -25
-1z"/>
<path d="M2466 796 c7 -19 -44 -134 -65 -146 -18 -10 -15 -15 16 -24 17 -6 22
-4 18 6 -5 13 30 108 40 108 2 0 1 -27 -1 -60 -4 -37 -2 -60 4 -60 6 0 29 21
52 48 l41 47 -21 -50 c-12 -27 -28 -55 -36 -62 -14 -10 -13 -13 5 -22 24 -13
44 -14 37 -2 -8 12 42 134 61 148 20 15 17 19 -19 28 -20 5 -27 3 -32 -12 -4
-11 -20 -32 -36 -48 l-29 -28 5 63 c5 47 3 65 -7 71 -22 13 -39 11 -33 -5z"/>
<path d="M3886 777 c-28 -21 -32 -89 -7 -130 25 -41 29 -43 104 -52 40 -5 57
-4 57 4 0 6 -9 11 -19 11 -23 0 -36 16 -21 25 15 9 12 72 -5 105 -25 47 -72
64 -109 37z m65 -34 c30 -24 34 -34 34 -73 0 -35 -4 -45 -18 -48 -24 -5 -56
24 -73 65 -18 41 -17 48 2 67 19 20 15 21 55 -11z"/>
<path d="M2675 717 c7 -16 -39 -134 -61 -159 -16 -17 -16 -18 4 -18 11 0 24
-4 27 -10 3 -5 11 -10 17 -10 7 0 7 5 -1 14 -15 18 37 156 59 156 10 0 7 7
-10 20 -29 23 -41 25 -35 7z"/>
<path d="M3765 720 c-3 -5 0 -10 7 -10 13 0 53 -89 44 -98 -3 -2 -32 17 -65
42 -53 41 -63 45 -82 35 -19 -10 -20 -13 -6 -20 19 -11 60 -130 52 -151 -5
-12 -1 -14 19 -11 26 5 35 18 17 25 -10 3 -54 108 -46 108 7 0 58 -32 65 -41
9 -10 84 -59 87 -55 2 1 -11 40 -27 85 -17 45 -28 87 -25 92 4 5 -3 9 -14 9
-11 0 -23 -4 -26 -10z"/>
<path d="M2766 674 c8 -4 9 -16 2 -42 -5 -20 -12 -49 -15 -64 -3 -14 -13 -35
-23 -46 -18 -19 -18 -20 23 -36 52 -19 73 -20 80 -3 3 9 -3 12 -22 10 -41 -6
-53 8 -40 45 12 35 33 41 48 15 6 -10 11 -13 11 -6 0 6 3 18 6 26 4 12 0 14
-14 10 -27 -7 -35 10 -20 45 11 25 16 29 36 21 12 -4 22 -16 22 -26 1 -17 1
-17 11 0 13 22 6 30 -40 46 -32 10 -89 15 -65 5z"/>
<path d="M3585 670 c-3 -5 -2 -10 4 -10 10 0 31 -84 31 -125 0 -48 -51 -68
-65 -25 -16 52 -22 126 -11 139 9 12 7 13 -14 8 -14 -4 -31 -7 -39 -7 -12 0
-12 -2 1 -12 9 -8 19 -37 22 -68 9 -72 28 -100 66 -100 49 0 63 33 49 114 -6
36 -9 73 -5 81 6 17 -29 22 -39 5z"/>
<path d="M2904 565 c0 -59 -4 -89 -13 -94 -9 -6 -6 -10 11 -13 24 -4 24 -3 20
48 -8 92 8 93 57 4 25 -44 46 -78 48 -76 3 2 8 42 13 88 4 45 11 91 15 101 6
14 2 17 -21 17 -22 0 -25 -3 -16 -12 13 -13 17 -100 5 -111 -3 -4 -23 23 -43
60 -23 43 -43 69 -56 71 -17 2 -19 -4 -20 -83z"/>
<path d="M3101 621 c-21 -38 -13 -69 24 -97 19 -14 35 -35 35 -45 0 -11 -2
-19 -4 -19 -2 0 -11 -3 -19 -6 -10 -4 -21 4 -31 23 -15 26 -16 27 -14 4 2 -13
12 -30 23 -37 31 -21 65 6 65 51 0 34 -15 56 -51 75 -23 13 -25 38 -3 47 11 4
22 -1 31 -13 14 -18 14 -18 11 6 -4 33 -51 41 -67 11z"/>
<path d="M3296 631 c-4 -5 -1 -11 6 -13 16 -6 29 -149 16 -165 -8 -10 -4 -13
16 -13 25 0 36 15 17 22 -5 2 -12 30 -15 62 -6 59 -6 59 14 41 12 -10 37 -40
57 -67 21 -26 40 -48 44 -48 4 0 6 43 5 95 -1 94 -1 95 -26 95 -17 0 -21 -3
-12 -8 11 -8 31 -112 20 -112 -2 0 -26 27 -54 60 -46 56 -75 73 -88 51z"/>
<path d="M724 2545 c-9 -23 3 -45 25 -45 20 0 37 32 26 50 -9 15 -45 12 -51
-5z"/>
<path d="M721 2433 c0 -16 7 -44 15 -63 9 -22 12 -26 9 -10 -2 14 -5 42 -5 63
0 20 -4 37 -10 37 -5 0 -10 -12 -9 -27z"/>
<path d="M756 2451 c-3 -5 3 -35 14 -67 11 -33 18 -48 15 -34 -3 14 -5 44 -5
68 0 39 -11 54 -24 33z"/>
<path d="M860 2395 c0 -31 26 -43 47 -22 21 21 9 47 -22 47 -20 0 -25 -5 -25
-25z"/>
<path d="M910 2316 c0 -14 85 -136 95 -136 3 0 -8 21 -24 48 -16 26 -33 59
-36 75 -7 28 -35 38 -35 13z"/>
<path d="M875 2298 c9 -29 47 -99 52 -94 2 1 -4 19 -12 39 -8 20 -15 46 -15
57 0 11 -7 20 -16 20 -11 0 -14 -6 -9 -22z"/>
<path d="M804 2206 c-10 -26 4 -48 28 -44 17 2 23 10 23 28 0 18 -6 26 -23 28
-13 2 -25 -3 -28 -12z"/>
<path d="M875 2128 c-5 -12 5 -32 30 -63 42 -50 57 -60 29 -17 -10 15 -26 43
-35 62 -14 28 -19 32 -24 18z"/>
<path d="M830 2110 c0 -6 16 -27 35 -48 l35 -37 -26 48 c-24 44 -44 61 -44 37z"/>
<path d="M1159 1951 c12 -8 5 -20 -33 -65 -26 -31 -55 -56 -64 -56 -12 0 -4
-13 25 -40 23 -22 50 -40 60 -40 55 0 122 82 110 132 -10 39 -52 78 -84 78
-21 0 -24 -3 -14 -9z m69 -67 c3 -35 -25 -77 -68 -99 -25 -13 -29 -13 -45 5
-17 19 -16 22 30 75 53 62 78 68 83 19z"/>
<path d="M1330 1831 c0 -18 -113 -131 -131 -131 -28 0 -23 -13 12 -33 24 -13
30 -14 26 -3 -6 16 58 82 66 69 3 -5 -3 -28 -14 -52 -18 -42 -18 -44 -2 -57
10 -7 19 -10 19 -6 10 50 30 92 44 92 22 0 50 31 50 56 0 11 -13 32 -28 47
-29 28 -42 33 -42 18z m44 -40 c16 -26 -34 -65 -56 -43 -6 6 -2 17 13 31 25
23 35 26 43 12z"/>
<path d="M1503 1693 c-12 -11 -34 -28 -48 -39 -15 -10 -32 -24 -39 -29 -36
-33 -69 -54 -77 -49 -5 3 -9 1 -9 -5 0 -5 9 -12 20 -16 14 -4 27 3 48 26 19
22 34 30 45 26 23 -9 21 -43 -3 -67 -19 -19 -19 -19 2 -34 21 -15 22 -13 55
86 18 56 32 106 30 111 -1 4 -12 0 -24 -10z m-28 -62 c-3 -6 -11 -11 -17 -11
-6 0 -6 6 2 15 14 17 26 13 15 -4z"/>
<path d="M1569 1577 c-14 -12 -34 -39 -43 -59 -20 -44 -9 -76 33 -101 25 -15
30 -15 47 -1 19 15 19 15 0 10 -10 -4 -30 1 -43 10 -19 12 -23 21 -18 41 15
62 77 114 108 90 9 -7 17 -23 19 -37 l4 -25 8 28 c18 60 -62 90 -115 44z"/>
<path d="M1695 1453 c-55 -58 -46 -123 18 -146 28 -10 85 19 107 55 41 68 17
128 -53 128 -30 0 -44 -7 -72 -37z m109 1 c11 -28 6 -47 -19 -80 -47 -62 -95
-68 -95 -12 0 28 30 83 55 100 18 13 53 9 59 -8z"/>
</g>
</svg>
