<?xml version="1.0" standalone="no"?>
<!DOCTYPE svg PUBLIC "-//W3C//DTD SVG 20010904//EN"
 "http://www.w3.org/TR/2001/REC-SVG-20010904/DTD/svg10.dtd">
<svg version="1.0" xmlns="http://www.w3.org/2000/svg"
 width="360.000000pt" height="207.000000pt" viewBox="0 0 360.000000 207.000000"
 preserveAspectRatio="xMidYMid meet">

<g transform="translate(0.000000,207.000000) scale(0.100000,-0.100000)"
fill="#000000" stroke="none">
<path d="M1975 2045 c-5 -2 -44 -11 -85 -20 -91 -21 -144 -47 -166 -80 -21
-33 -64 -180 -64 -221 0 -38 -14 -51 -65 -62 -38 -7 -39 -8 -87 -127 -26 -66
-48 -127 -48 -136 0 -17 -73 -89 -90 -89 -14 0 -13 -35 6 -142 13 -76 14 -108
5 -184 -6 -51 -16 -105 -21 -119 -6 -14 -10 -44 -10 -65 0 -31 -6 -44 -35 -69
-20 -17 -43 -31 -52 -31 -14 0 -15 -17 -9 -154 l8 -153 -25 -29 -25 -29 -104
5 c-219 10 -350 5 -405 -13 -142 -49 -137 -184 8 -247 99 -42 181 -54 389 -54
233 -1 282 8 675 121 348 100 438 120 582 133 249 21 592 114 642 174 23 27 5
102 -34 144 -33 36 -35 37 -107 37 -62 0 -88 -6 -178 -42 -152 -60 -157 -60
-202 7 -57 85 -184 344 -219 450 -26 78 -30 104 -25 147 5 46 3 58 -21 96 -43
68 -143 286 -137 299 3 7 25 25 49 40 48 29 50 35 36 85 -7 22 -6 35 2 41 7 5
75 14 152 21 77 7 152 19 167 27 61 32 27 57 -159 118 -68 23 -138 54 -180 81
-56 37 -76 44 -113 44 -25 0 -49 -2 -55 -4z m-113 -173 c10 -20 20 -50 24 -67
9 -39 22 -55 45 -55 16 0 19 8 19 50 0 54 16 67 26 23 3 -16 20 -45 36 -66 24
-30 27 -41 18 -52 -6 -8 -9 -19 -5 -25 12 -19 -9 -10 -38 18 l-29 27 -22 -27
c-27 -35 -36 -35 -36 -2 0 14 -11 39 -25 56 -14 17 -25 42 -25 59 0 16 -10 43
-21 58 -21 29 -19 54 4 45 7 -2 20 -21 29 -42z m-160 -572 c44 -16 72 -39 163
-136 128 -136 116 -133 240 -54 43 27 83 50 87 50 4 0 8 -17 8 -39 0 -33 -7
-45 -50 -85 -27 -26 -50 -51 -50 -56 0 -5 9 -14 20 -20 27 -14 26 -33 -1 -25
-11 4 -43 21 -71 38 -69 43 -96 40 -198 -22 -47 -28 -88 -51 -92 -51 -21 0 -3
22 42 49 28 17 50 33 50 37 0 24 -25 44 -65 50 -41 6 -50 12 -85 62 -22 31
-56 67 -75 80 l-35 25 30 18 c35 22 38 35 11 44 -25 8 -44 31 -36 45 10 15 49
12 107 -10z m558 -534 c36 -38 56 -52 70 -49 19 5 48 -31 32 -41 -5 -3 -49 2
-98 11 -118 20 -360 13 -492 -16 -163 -36 -339 -97 -377 -132 -21 -18 -21 -18
-39 11 l-17 30 51 0 c46 0 81 14 288 114 131 63 248 116 262 119 14 2 80 5
147 6 l122 1 51 -54z m659 -210 c25 -13 51 -52 51 -77 0 -27 -180 -82 -453
-139 -266 -54 -266 -39 0 91 295 144 338 157 402 125z"/>
</g>
</svg>
