<?xml version="1.0" encoding="UTF-8"?>
<svg version="1.1" xmlns="http://www.w3.org/2000/svg" width="480" height="276">
<path d="M0 0 C9.14824277 5.32463302 18.98428107 8.65673496 28.9206543 12.20507812 C32.26273487 13.41126595 35.56165843 14.68908624 38.85375977 16.02587891 C39.71614258 16.37392578 40.57852539 16.72197266 41.46704102 17.08056641 C43.63274699 18.198087 45.02181015 19.24908413 46.54125977 21.15087891 C46.2708983 24.12485506 45.68679951 25.00533917 43.54125977 27.15087891 C32.89206864 29.9719545 21.71587292 30.94055833 10.796875 32.14868164 C9.7560376 32.26542236 8.7152002 32.38216309 7.64282227 32.50244141 C6.70776855 32.60379395 5.77271484 32.70514648 4.80932617 32.80957031 C2.51464139 33.0353816 2.51464139 33.0353816 0.54125977 34.15087891 C0.71915039 35.14667969 0.71915039 35.14667969 0.90063477 36.16259766 C1.95207594 43.3649697 1.95207594 43.3649697 0.10375977 46.90087891 C-3.27127944 49.86432796 -6.79118582 52.56044605 -10.45874023 55.15087891 C-7.48423248 63.71285978 -3.80472632 71.85689015 0.10375977 80.02587891 C0.57467041 81.01209229 1.04558105 81.99830566 1.53076172 83.0144043 C3.51405127 87.12351817 5.50747272 91.17740795 7.83422852 95.10400391 C10.60134634 100.04302427 10.64075377 104.58384838 10.29125977 110.08837891 C10.26408285 126.12275816 19.7737864 142.15527219 26.54125977 156.15087891 C27.01966309 157.15006348 27.49806641 158.14924805 27.9909668 159.17871094 C35.99229673 176.81142677 35.99229673 176.81142677 47.54125977 192.15087891 C54.58536898 193.15024977 60.67831717 190.19339873 67.16625977 187.71337891 C69.38645098 186.87824938 71.60776679 186.04610208 73.83032227 185.21728516 C74.80694824 184.84547119 75.78357422 184.47365723 76.78979492 184.09057617 C82.20877222 182.23985358 87.30823566 181.912278 92.97875977 181.83837891 C93.71674805 181.809375 94.45473633 181.78037109 95.21508789 181.75048828 C100.46037961 181.68987602 103.41227402 182.6449058 107.54125977 186.15087891 C111.34019598 190.87022246 113.08561027 196.05633628 113.79125977 202.01025391 C113.43336755 205.07470602 112.42259585 206.70748391 110.54125977 209.15087891 C98.82408862 216.86043789 83.95505201 219.82419255 70.54125977 223.15087891 C69.59702148 223.38548828 68.6527832 223.62009766 67.67993164 223.86181641 C57.70036108 226.27336864 47.67878299 228.05802659 37.49829102 229.35791016 C36.69235001 229.46097473 35.886409 229.56403931 35.05604553 229.67022705 C31.07949266 230.17301892 27.10192293 230.65415561 23.11865234 231.10058594 C1.38532164 233.63451687 -19.67350813 239.59413943 -40.67349243 245.55874634 C-46.54104623 247.22276101 -52.41584352 248.86077856 -58.29077148 250.49853516 C-59.43621933 250.81793564 -60.58166718 251.13733612 -61.76182556 251.46641541 C-70.43510465 253.87905138 -79.11641921 256.25285208 -87.8414917 258.47174072 C-89.67290641 258.93832659 -91.50170025 259.41516453 -93.33032227 259.89257812 C-108.40328635 263.65480745 -123.28299288 264.48437555 -138.75170898 264.41162109 C-141.45636394 264.40088834 -144.16035503 264.41159562 -146.86499023 264.42431641 C-189.78776026 264.46263007 -189.78776026 264.46263007 -203.97436523 250.67822266 C-207.25388631 246.99347341 -209.55870345 243.8544295 -209.37280273 238.82666016 C-208.74318297 234.14648657 -207.8382149 230.9268696 -204.27124023 227.71337891 C-195.39988242 221.19790034 -186.37508345 220.99823989 -175.81420898 221.01806641 C-174.6898494 221.01710968 -173.56548981 221.01615295 -172.40705872 221.01516724 C-170.03260238 221.01448801 -167.65814416 221.01632432 -165.28369141 221.02050781 C-161.66947196 221.0258446 -158.05537763 221.02056179 -154.44116211 221.01416016 C-152.1280108 221.01482128 -149.81485956 221.01610314 -147.50170898 221.01806641 C-145.89346504 221.01503006 -145.89346504 221.01503006 -144.25273132 221.01193237 C-138.23917406 221.03049759 -132.42237924 221.36836741 -126.45874023 222.15087891 C-126.16216019 221.5198526 -125.86558014 220.88882629 -125.56001282 220.23867798 C-124.45874023 218.15087891 -124.45874023 218.15087891 -122.83837891 216.74609375 C-120.80209583 214.39163019 -121.20670421 212.68589847 -121.38452148 209.62744141 C-121.43930664 208.52271484 -121.4940918 207.41798828 -121.55053711 206.27978516 C-121.65978516 204.54535156 -121.65978516 204.54535156 -121.77124023 202.77587891 C-123.12107307 178.13787742 -123.12107307 178.13787742 -121.45874023 173.15087891 C-119.45874023 172.15087891 -117.45874023 171.15087891 -115.45874023 170.15087891 C-110.1454197 166.37324762 -109.4040551 162.18297774 -108.24023438 155.92236328 C-107.94620728 154.11735352 -107.94620728 154.11735352 -107.64624023 152.27587891 C-107.43539795 151.03386719 -107.22455566 149.79185547 -107.00732422 148.51220703 C-104.70182029 133.904773 -104.0982514 119.22760578 -106.98999023 104.66259766 C-107.77046395 100.48055935 -108.37187074 96.34807528 -107.45874023 92.15087891 C-104.83374023 89.90087891 -104.83374023 89.90087891 -101.45874023 88.15087891 C-96.32042656 83.76079905 -94.36264168 80.26968428 -92.58374023 73.83837891 C-90.56910553 67.2964142 -88.32293872 60.96264395 -85.52124023 54.71337891 C-85.22169434 53.99819092 -84.92214844 53.28300293 -84.61352539 52.54614258 C-82.93035588 48.90515331 -81.61788621 46.86541421 -77.88061523 45.21337891 C-74.45874023 44.15087891 -74.45874023 44.15087891 -71.64624023 43.58837891 C-69.29498311 42.38530861 -69.29498311 42.38530861 -68.90869141 40.20092773 C-68.77438721 39.38648193 -68.64008301 38.57203613 -68.50170898 37.73291016 C-67.49574929 32.18997815 -66.11308253 26.82024057 -64.58374023 21.40087891 C-64.34010742 20.49466797 -64.09647461 19.58845703 -63.84545898 18.65478516 C-61.65737042 10.88877134 -59.09533661 5.44676095 -51.90405273 1.30712891 C-34.23620787 -7.04699582 -16.87470122 -10.02360518 0 0 Z M-45.45874023 12.15087891 C-44.31579545 21.06584826 -40.91546826 28.55038901 -36.76342773 36.45166016 C-35.66183819 38.73069721 -34.93967677 40.68168037 -34.45874023 43.15087891 C-31.05959048 42.01782899 -30.40619573 41.02569416 -28.45874023 38.15087891 C-24.58741996 38.72440784 -22.37701227 40.63792243 -19.45874023 43.15087891 C-18.13109785 40.44844255 -18.13109785 40.44844255 -17.45874023 37.15087891 C-18.65440702 34.23652767 -18.65440702 34.23652767 -20.70874023 31.58837891 C-23.13215155 28.17136895 -25.05553525 25.10992155 -26.45874023 21.15087891 C-26.78874023 21.15087891 -27.11874023 21.15087891 -27.45874023 21.15087891 C-28.56102719 25.56002674 -28.53528559 29.63470292 -28.45874023 34.15087891 C-30.76874023 33.82087891 -33.07874023 33.49087891 -35.45874023 33.15087891 C-35.62889648 32.44962891 -35.79905273 31.74837891 -35.97436523 31.02587891 C-38.47964953 20.20538991 -38.47964953 20.20538991 -45.45874023 12.15087891 Z M-74.45874023 92.15087891 C-74.45874023 93.47087891 -74.45874023 94.79087891 -74.45874023 96.15087891 C-72.03201456 97.94056917 -72.03201456 97.94056917 -69.45874023 99.15087891 C-69.80585123 102.39058154 -70.43489006 103.13086375 -73.00952148 105.29150391 C-74.22188477 106.21189453 -74.22188477 106.21189453 -75.45874023 107.15087891 C-74.8412793 107.67294922 -74.22381836 108.19501953 -73.58764648 108.73291016 C-68.84074978 112.85844748 -64.80592107 116.88208984 -61.08374023 121.96337891 C-57.01574398 127.1739072 -53.31097468 128.90249928 -46.96264648 130.46728516 C-44.45874023 131.15087891 -44.45874023 131.15087891 -42.45874023 133.15087891 C-42.45874023 134.47087891 -42.45874023 135.79087891 -42.45874023 137.15087891 C-45.08374023 139.29150391 -45.08374023 139.29150391 -48.45874023 141.40087891 C-49.57249023 142.10728516 -50.68624023 142.81369141 -51.83374023 143.54150391 C-52.69999023 144.07259766 -53.56624023 144.60369141 -54.45874023 145.15087891 C-53.79874023 145.48087891 -53.13874023 145.81087891 -52.45874023 146.15087891 C-50.55978258 145.377767 -50.55978258 145.377767 -48.50170898 144.13134766 C-47.71860352 143.68597656 -46.93549805 143.24060547 -46.12866211 142.78173828 C-45.30946289 142.30542969 -44.49026367 141.82912109 -43.64624023 141.33837891 C-29.0986668 132.96742883 -29.0986668 132.96742883 -21.45874023 134.15087891 C-18.67623961 135.22839259 -16.19152826 136.6655337 -13.64624023 138.21337891 C-11.27458181 139.62702752 -8.93236764 140.90966373 -6.45874023 142.15087891 C-5.46874023 141.82087891 -4.47874023 141.49087891 -3.45874023 141.15087891 C-4.77874023 140.16087891 -6.09874023 139.17087891 -7.45874023 138.15087891 C-7.04283393 133.26397983 -5.07834735 131.54746918 -1.45874023 128.40087891 C2.07501667 125.04834031 4.18421706 122.95515429 4.66625977 118.02587891 C4.62500977 116.74712891 4.58375977 115.46837891 4.54125977 114.15087891 C3.88125977 113.82087891 3.22125977 113.49087891 2.54125977 113.15087891 C0.47502959 114.1363295 0.47502959 114.1363295 -1.78295898 115.64306641 C-2.64727539 116.18318359 -3.5115918 116.72330078 -4.40209961 117.27978516 C-6.21408875 118.43275191 -8.02403138 119.58894203 -9.83178711 120.74853516 C-14.77160722 123.82723873 -18.56474981 126.09019432 -24.45874023 126.15087891 C-30.46535268 123.27815121 -37.48033821 117.10768295 -40.45874023 111.15087891 C-41.11874023 111.15087891 -41.77874023 111.15087891 -42.45874023 111.15087891 C-42.72686523 110.56048828 -42.99499023 109.97009766 -43.27124023 109.36181641 C-47.81421415 100.90351628 -57.61142274 95.16541656 -66.45874023 92.15087891 C-68.66736428 91.91281085 -68.66736428 91.91281085 -70.77124023 92.02587891 C-71.98811523 92.06712891 -73.20499023 92.10837891 -74.45874023 92.15087891 Z M-22.3684082 158.29223633 C-28.83152403 158.67808558 -33.79015053 160.12790641 -39.58374023 162.96337891 C-40.84238892 163.55300415 -40.84238892 163.55300415 -42.12646484 164.15454102 C-44.91371631 165.46704013 -47.68696607 166.80602214 -50.45874023 168.15087891 C-52.51982377 169.14590753 -54.58102501 170.14069238 -56.64233398 171.13525391 C-59.82901507 172.67282508 -63.01555715 174.21062641 -66.19995117 175.75292969 C-93.54029636 188.92230118 -93.54029636 188.92230118 -103.14624023 189.71337891 C-104.14010742 189.79716797 -105.13397461 189.88095703 -106.15795898 189.96728516 C-106.9172168 190.02787109 -107.67647461 190.08845703 -108.45874023 190.15087891 C-107.79874023 191.80087891 -107.13874023 193.45087891 -106.45874023 195.15087891 C-101.97422534 195.15087891 -100.66106212 194.32130954 -96.83374023 192.15087891 C-75.10890082 180.62420514 -47.90262618 175.01449736 -23.38452148 174.98291016 C-22.45762009 174.97958176 -21.53071869 174.97625336 -20.57572937 174.9728241 C-18.62698863 174.96779669 -16.67823941 174.96541446 -14.72949219 174.96557617 C-11.79599321 174.96339729 -8.86287572 174.94521713 -5.92944336 174.92626953 C4.74192471 174.89545581 15.01151815 175.33363104 25.54125977 177.15087891 C25.54125977 175.83087891 25.54125977 174.51087891 25.54125977 173.15087891 C25.01918945 172.98974609 24.49711914 172.82861328 23.95922852 172.66259766 C18.28330239 170.56518888 15.7282508 168.19952553 12.04125977 163.40087891 C9.32187489 160.20047929 6.9711013 158.42023999 2.78344727 157.63134766 C-5.65015531 157.00781062 -13.9536477 157.88343063 -22.3684082 158.29223633 Z M65.54125977 201.15087891 C64.44378418 201.66682617 63.34630859 202.18277344 62.21557617 202.71435547 C39.16221678 211.20362168 39.16221678 211.20362168 21.54125977 225.15087891 C26.85547331 225.27126562 31.57655674 224.94099258 36.81079102 223.86572266 C37.48126465 223.72939926 38.15173828 223.59307587 38.8425293 223.45262146 C41.01499445 223.00719549 43.1844461 222.5488916 45.35375977 222.08837891 C46.0995932 221.93226135 46.84542664 221.7761438 47.61386108 221.61529541 C57.91213073 219.45636417 68.15833911 217.1313672 78.35375977 214.52587891 C79.39959229 214.26154053 80.4454248 213.99720215 81.52294922 213.72485352 C90.03501204 211.4817406 99.16673607 209.06722804 106.54125977 204.15087891 C106.27713547 200.36509729 105.76290821 198.43771807 103.41625977 195.40087891 C91.83504393 186.33731868 77.05196979 195.72891018 65.54125977 201.15087891 Z " fill="#FFFFFF" transform="translate(288.458740234375,8.84912109375)"/>
</svg>
