<?xml version="1.0" encoding="UTF-8"?>
<svg version="1.1" xmlns="http://www.w3.org/2000/svg" width="1200" height="667">
<path d="M0 0 C15.31126863 12.08662266 27.61130562 27.13650198 30 47 C30.11295735 49.29054306 30.19793616 51.58256055 30.26171875 53.875 C30.72727465 69.78080046 32.16896387 79.163371 42.62646484 91.27880859 C50.4452395 101.07659767 51.61712004 114.6779934 50.46875 126.64453125 C48.69620552 139.33299549 42.89817686 149.79261492 33 158 C20.45428664 167.25503444 5.92488575 167.20301496 -9.09765625 165.6875 C-14.33091348 164.75861758 -19.10205944 162.91461347 -23.96875 160.8046875 C-25.94576258 159.87723132 -25.94576258 159.87723132 -28 160 C-28.8950933 161.42126301 -29.71432834 162.89044599 -30.5 164.375 C-35.48542697 172.95627283 -43.07280482 181.5951902 -52.87353516 184.56835938 C-65.66749365 187.16534199 -79.26129618 186.55214473 -90.29296875 179.43359375 C-92.86922678 177.77290104 -92.86922678 177.77290104 -95.5703125 178.1328125 C-98.10531877 179.03758966 -100.33663299 180.12800879 -102.6875 181.4375 C-113.69472983 187.00548468 -124.9532885 186.22262917 -137 186 C-137.37511719 186.72445312 -137.75023437 187.44890625 -138.13671875 188.1953125 C-143.1487624 197.66390881 -147.23663356 204.0984827 -157.74609375 207.578125 C-168.22936307 209.54033139 -177.49136495 208.88700391 -186.58203125 203.1171875 C-188.87964116 201.75494213 -188.87964116 201.75494213 -191.0078125 202.46875 C-193.72677357 204.55861812 -195.88595945 206.99803267 -198.0625 209.625 C-198.53276611 210.18533936 -199.00303223 210.74567871 -199.48754883 211.32299805 C-205.14695695 218.19962435 -210.07970051 225.58624119 -215 233 C-214.01 233.66 -213.02 234.32 -212 235 C-208.88631951 237.61877556 -207.20734256 239.13390512 -206.2487793 243.13793945 C-206.19117432 244.28480225 -206.13356934 245.43166504 -206.07421875 246.61328125 C-205.96303711 248.4840332 -205.96303711 248.4840332 -205.84960938 250.39257812 C-205.76936523 252.33293945 -205.76936523 252.33293945 -205.6875 254.3125 C-205.61466797 255.62541016 -205.54183594 256.93832031 -205.46679688 258.29101562 C-205.29029691 261.52684837 -205.13550192 264.76223388 -205 268 C-198.92935079 268.86616618 -192.97922216 269.2026556 -186.8515625 269.31640625 C-185.40777222 269.34859756 -185.40777222 269.34859756 -183.93481445 269.38143921 C-178.69950123 269.49460699 -173.46396915 269.58223488 -168.22802734 269.66040039 C-166.11034917 269.69271488 -163.99267336 269.72518436 -161.875 269.7578125 C-160.83816071 269.77313522 -159.80132141 269.78845795 -158.73306274 269.804245 C-152.94815706 269.90301703 -147.20805695 270.1382409 -141.4375 270.5546875 C-131.42041835 271.72300516 -131.42041835 271.72300516 -122.22070312 268.734375 C-119.67218275 265.97487331 -118.09858778 263.00366233 -116.609375 259.578125 C-114.45207873 254.7818061 -111.35152781 251.86491989 -107 249 C-102.89571218 247.63190406 -99.04985669 247.73643615 -94.75 247.6875 C-93.91597656 247.65849609 -93.08195312 247.62949219 -92.22265625 247.59960938 C-85.08756297 247.5268023 -81.00300012 249.18628608 -75.70703125 254.1484375 C-75.08183594 254.88320313 -74.45664062 255.61796875 -73.8125 256.375 C-73.1421875 257.15875 -72.471875 257.9425 -71.78125 258.75 C-70.32985636 260.58333934 -69.04201994 262.39190332 -67.8125 264.375 C-65.67859696 267.46548026 -64.41891155 268.43648699 -61 270 C-57.77851794 270.4654156 -54.57933972 270.48862608 -51.328125 270.51171875 C-49.90838379 270.53878151 -49.90838379 270.53878151 -48.45996094 270.56639099 C-45.39001323 270.62111961 -42.32025561 270.65487831 -39.25 270.6875 C-37.13637816 270.71956161 -35.02277097 270.75260433 -32.90917969 270.78662109 C-27.8166746 270.86433092 -22.72419572 270.92405266 -17.63134766 270.97393799 C-15.3570472 270.99646365 -13.08283217 271.02232294 -10.80859375 271.05029297 C4.81558861 271.22704699 20.39312378 270.71993442 36 270 C36.02505615 269.21351074 36.0501123 268.42702148 36.07592773 267.61669922 C36.19232866 264.03598506 36.31485487 260.4555055 36.4375 256.875 C36.49647461 255.01875 36.49647461 255.01875 36.55664062 253.125 C36.59853516 251.92617188 36.64042969 250.72734375 36.68359375 249.4921875 C36.72025146 248.39245605 36.75690918 247.29272461 36.79467773 246.15966797 C37 243 37 243 38 237 C115.715 237.495 115.715 237.495 195 238 C195.66 248.56 196.32 259.12 197 270 C193.44025391 269.98646484 193.44025391 269.98646484 189.80859375 269.97265625 C187.4915989 269.98770394 185.17502369 270.01465135 182.8581543 270.04272461 C181.25697062 270.05580538 179.65563569 270.05665264 178.05444336 270.04467773 C167.63105496 269.65810847 167.63105496 269.65810847 158.41015625 273.68359375 C155.9016472 277.24573602 155.72290283 279.91825746 155.81054688 284.22363281 C155.83254654 285.46966782 155.8545462 286.71570282 155.87721252 287.99949646 C155.91617656 289.33305651 155.95712743 290.66655989 156 292 C156.03927109 293.3040126 156.07854218 294.60802521 156.1190033 295.95155334 C156.26059495 300.21491783 156.43979499 304.47645199 156.62109375 308.73828125 C156.68616767 310.31421563 156.75102814 311.89015885 156.81568909 313.46611023 C156.95094253 316.74791045 157.08810603 320.02962299 157.22680664 323.3112793 C157.40233665 327.46576005 157.57404569 331.62038731 157.74441433 335.77508259 C157.87792391 339.02441903 158.01300624 342.27368863 158.14857674 345.52293968 C158.21230378 347.052345 158.27568701 348.58176469 158.33868217 350.11120033 C158.67244207 358.18361263 159.04278077 366.2537689 159.48461914 374.32104492 C159.52100463 375.03228421 159.55739012 375.7435235 159.5948782 376.4763155 C159.782243 379.75588417 160.03085809 382.8508025 161 386 C173.41756414 387.88271619 185.64465674 388.38243778 198.1875 388.5625 C200.9531486 388.60667506 203.71869292 388.65337896 206.48420715 388.70530701 C208.18699519 388.73687738 209.88987623 388.76388151 211.59281921 388.78553772 C212.74606438 388.80577248 212.74606438 388.80577248 213.92260742 388.82641602 C214.59160568 388.83592789 215.26060394 388.84543976 215.94987488 388.85523987 C218.32478192 389.02293298 220.6654138 389.53308276 223 390 C223 403.2 223 416.4 223 430 C218.43800781 430.04898437 213.87601563 430.09796875 209.17578125 430.1484375 C206.28187915 430.18383225 203.38800658 430.21979698 200.49414062 430.2578125 C195.90311965 430.31806863 191.31213988 430.37623836 186.72094727 430.421875 C183.01850263 430.45880969 179.31628479 430.50519147 175.61403465 430.55806351 C174.20312678 430.57656407 172.79217037 430.591688 171.38118935 430.60334396 C169.40157109 430.62028005 167.42207953 430.65044771 165.44262695 430.68115234 C164.31677689 430.69447601 163.19092682 430.70779968 162.03096008 430.7215271 C158.9411098 431.0054106 156.74704976 431.57099872 154 433 C152.63365395 435.46657002 152.63365395 435.46657002 151.75 438.4375 C147.63506856 449.10820729 140.65109136 456.10523918 131.28515625 462.44140625 C128.93653965 463.9396368 128.93653965 463.9396368 127 466 C141.68230617 466.77590073 156.35131785 467.25079348 171.05078125 467.53515625 C173.17311604 467.57831872 175.29544567 467.62173499 177.41777039 467.66539001 C182.92643484 467.7780355 188.435161 467.88730076 193.94390869 467.99578857 C199.59611185 468.10772454 205.24824773 468.22295883 210.90039062 468.33789062 C221.93353141 468.56176695 232.96674043 468.78206156 244 469 C244.58126276 473.51185734 245.13921726 477.88086725 245.125 482.4375 C245.12757813 483.28183594 245.13015625 484.12617187 245.1328125 484.99609375 C245 487 245 487 244 488 C241.9649006 488.09580501 239.92640067 488.11935391 237.88904953 488.11643887 C236.91436724 488.11709294 236.91436724 488.11709294 235.9199944 488.11776024 C233.71085389 488.11799142 231.5017926 488.11099347 229.29266357 488.10411072 C227.6986025 488.10277399 226.10454101 488.10187555 224.51047945 488.10137904 C220.08615114 488.09869748 215.66185404 488.08968437 211.23753697 488.07971425 C206.42770388 488.06995356 201.61786553 488.06593008 196.80802536 488.06117916 C188.36211701 488.05202102 179.91622088 488.03906582 171.47032166 488.02369308 C159.0147147 488.00102975 146.55910479 487.98425844 134.10348734 487.96858837 C102.90949313 487.92895114 71.71552388 487.87539177 40.52155431 487.82007124 C37.74940784 487.81515935 34.97726134 487.81026545 32.20511484 487.80537153 C5.46705472 487.75816257 -21.27100409 487.7102506 -48.00905991 487.66066074 C-53.94663236 487.64965749 -59.88420484 487.63866634 -65.82177734 487.62768555 C-66.92755144 487.62563942 -66.92755144 487.62563942 -68.05566441 487.62355196 C-92.13952618 487.57901192 -116.22339237 487.5380563 -140.30726364 487.49901587 C-165.27337927 487.45852977 -190.23948736 487.41490504 -215.20559026 487.36717889 C-218.72903247 487.36044376 -222.25247474 487.35374196 -225.77591705 487.34705925 C-226.4688943 487.34574352 -227.16187155 487.34442779 -227.87584811 487.3430722 C-238.96419186 487.3221059 -250.05253846 487.30437466 -261.14088966 487.28787469 C-272.24989186 487.27126836 -283.35888387 487.25101596 -294.46787348 487.22733159 C-300.46954026 487.21463709 -306.47119913 487.20348187 -312.4728756 487.19658089 C-317.97355802 487.19022003 -323.47421295 487.17932921 -328.97488013 487.1649667 C-330.95377116 487.16057345 -332.93266661 487.15778093 -334.91156229 487.15683801 C-346.97611445 487.14999382 -358.96118921 486.80210653 -371 486 C-372.816023 482.62076672 -373.24584641 480.36147175 -373.1875 476.5 C-373.18105469 475.5615625 -373.17460937 474.623125 -373.16796875 473.65625 C-373.01857816 471.29379415 -372.66710889 469.26283335 -372 467 C-367.60936168 465.92423347 -363.30741362 465.82879579 -358.81323242 465.79467773 C-358.00295593 465.78477814 -357.19267944 465.77487854 -356.35784912 465.76467896 C-353.69041831 465.73319381 -351.02296971 465.70835807 -348.35546875 465.68359375 C-346.50172982 465.663013 -344.64799546 465.64201623 -342.79426575 465.62062073 C-337.92322503 465.56551583 -333.05214276 465.51605561 -328.18103027 465.46777344 C-323.20723793 465.4174737 -318.23350567 465.36183191 -313.25976562 465.30664062 C-303.50656178 465.19920077 -293.75330569 465.0977245 -284 465 C-284.83144531 464.44570313 -285.66289062 463.89140625 -286.51953125 463.3203125 C-290.6796875 460.546875 -294.83984375 457.7734375 -299 455 C-299 454.34 -299 453.68 -299 453 C-299.86625 452.6596875 -299.86625 452.6596875 -300.75 452.3125 C-303.62971224 450.63266786 -305.04166504 448.69271057 -307 446 C-307.66 445.113125 -308.32 444.22625 -309 443.3125 C-311.5632859 439.06705772 -313.27673731 434.63814321 -315 430 C-316.52923096 429.87153687 -316.52923096 429.87153687 -318.08935547 429.74047852 C-321.86543019 429.42218189 -325.64102789 429.09850835 -329.41650391 428.77319336 C-331.05179503 428.63304875 -332.68721246 428.49437007 -334.32275391 428.35717773 C-336.67124488 428.15992728 -339.01923375 427.95743961 -341.3671875 427.75390625 C-342.10057343 427.6934462 -342.83395935 427.63298615 -343.58956909 427.57069397 C-348.77225659 427.11387171 -348.77225659 427.11387171 -351 426 C-351.41064453 424.26025391 -351.41064453 424.26025391 -351.6328125 421.9765625 C-351.71660156 421.11804688 -351.80039062 420.25953125 -351.88671875 419.375 C-351.96535156 418.4675 -352.04398437 417.56 -352.125 416.625 C-352.21136719 415.78710938 -352.29773438 414.94921875 -352.38671875 414.0859375 C-353.25552116 404.65322562 -353 395.58978213 -353 386 C-336.17 386 -319.34 386 -302 386 C-301.34 384.02 -300.68 382.04 -300 380 C-298.35403532 376.98239808 -296.6324742 374.04336729 -294.8515625 371.10546875 C-292.56111055 367.32195002 -292.56111055 367.32195002 -292 363 C-294.59592583 362.13469139 -296.41070041 361.81622712 -299.08984375 361.640625 C-299.87423828 361.57617188 -300.65863281 361.51171875 -301.46679688 361.4453125 C-303.10889334 361.3155025 -304.75225811 361.20081683 -306.39648438 361.1015625 C-310.28617493 360.75694677 -312.37853646 360.54288769 -315.37890625 357.921875 C-325.65524409 339.39970462 -325.10262418 313.98784382 -323.25 293.5 C-323.17628174 292.67081055 -323.10256348 291.84162109 -323.02661133 290.98730469 C-322.28572079 284.19245828 -320.82438045 277.73657067 -317 272 C-306.624509 268.541503 -294.16548835 269.68505443 -283.3125 269.4375 C-281.53189292 269.39421291 -279.75129384 269.35059574 -277.97070312 269.30664062 C-273.64721814 269.20062211 -269.3236496 269.09906837 -265 269 C-264.29040504 265.7619591 -263.85719979 262.69446608 -263.75390625 259.3828125 C-263.72103516 258.52816406 -263.68816406 257.67351562 -263.65429688 256.79296875 C-263.59337194 255.0222567 -263.53604734 253.2514169 -263.48242188 251.48046875 C-263.27757652 246.34000976 -262.85755719 241.82335188 -261 237 C-260.01 236.34 -259.02 235.68 -258 235 C-257.54119658 232.94313823 -257.54119658 232.94313823 -257.59375 230.5625 C-257.56087891 229.21865234 -257.56087891 229.21865234 -257.52734375 227.84765625 C-257.51832031 226.90792969 -257.50929688 225.96820313 -257.5 225 C-257.39441361 214.36594179 -255.47541774 206.12569624 -250 197 C-248.78297266 193.42692624 -248.8274483 189.89567122 -248.75390625 186.14453125 C-248.7209432 184.78580145 -248.687732 183.42707764 -248.65429688 182.06835938 C-248.60715342 179.94690399 -248.56274174 177.82546845 -248.52319336 175.70385742 C-248.1659829 157.40484239 -244.23619996 146.05550099 -231 133 C-219.96756519 123.15112142 -207.68419333 120.96179967 -193.35546875 120.24609375 C-192.24816406 120.16488281 -191.14085937 120.08367187 -190 120 C-189.24847656 119.96777344 -188.49695313 119.93554688 -187.72265625 119.90234375 C-184.75323312 118.34693163 -184.25588205 115.13461077 -183.25 112.125 C-178.52503348 99.28043083 -170.43744203 88.76970877 -157.95703125 82.7265625 C-144.55090363 77.74943728 -127.14515803 80.61828066 -114 85 C-109.1215327 81.75494809 -104.69967047 78.31218177 -102 73 C-100.63900022 65.76561526 -101.53402639 58.26149279 -101.91796875 50.95654297 C-102.34777477 35.4656178 -95.59813427 21.14012739 -85.57421875 9.6015625 C-63.69617551 -12.5088727 -26.40544792 -18.4100095 0 0 Z M-220.390625 428.6328125 C-223.61981091 428.40215636 -225.14845441 428.41996326 -228 430 C-231.70253371 434.51359135 -234.2388744 439.85653627 -236.92578125 445.00830078 C-241.85856967 454.15413895 -250.3606452 458.8235766 -259 464 C-256.16662535 465.59977609 -254.13586062 466.25047678 -250.88790894 466.25396729 C-250.07754181 466.25960693 -249.26717468 466.26524658 -248.43225098 466.27105713 C-247.11202942 466.26498444 -247.11202942 466.26498444 -245.76513672 466.25878906 C-244.83142242 466.2622937 -243.89770813 466.26579834 -242.93569946 466.26940918 C-239.85028647 466.27820999 -236.76510281 466.27238406 -233.6796875 466.265625 C-231.53785152 466.26697189 -229.39601584 466.26891263 -227.25418091 466.27142334 C-222.7669178 466.27437218 -218.27973432 466.27008378 -213.79248047 466.26074219 C-208.0307731 466.24933408 -202.26925177 466.25591729 -196.50755119 466.26788712 C-192.08617745 466.27510044 -187.66484811 466.27282045 -183.24347305 466.26763153 C-181.1183177 466.26629429 -178.99315836 466.26794535 -176.86800766 466.27259064 C-173.90392049 466.27764869 -170.94013855 466.26995641 -167.97607422 466.25878906 C-167.09187805 466.26283752 -166.20768188 466.26688599 -165.29669189 466.27105713 C-160.66836178 466.45635324 -160.66836178 466.45635324 -157 464 C-157.85722656 463.50371094 -158.71445312 463.00742187 -159.59765625 462.49609375 C-171.975803 455.20279845 -179.77797657 447.15231548 -185.875 433.9375 C-188.57152736 430.20994747 -190.12785669 430.19415175 -194.45458984 429.35522461 C-201.16566231 428.41866117 -207.95148679 428.82067979 -214.70507812 428.99511719 C-217 429 -217 429 -220.390625 428.6328125 Z M-101 430 C-101.27150879 430.50861572 -101.54301758 431.01723145 -101.82275391 431.54125977 C-103.08128718 433.88656288 -104.35302088 436.22446389 -105.625 438.5625 C-106.05167969 439.36236328 -106.47835938 440.16222656 -106.91796875 440.98632812 C-111.59124967 449.53075966 -116.62768669 455.25096285 -124.875 460.4375 C-125.56335938 460.88287109 -126.25171875 461.32824219 -126.9609375 461.78710938 C-128.63434844 462.86785394 -130.31629342 463.93536619 -132 465 C-129.20681315 466.57120679 -127.2047769 467.24980558 -124.00421143 467.24723816 C-123.21934357 467.25143265 -122.43447571 467.25562714 -121.62582397 467.25994873 C-120.34779404 467.25151947 -120.34779404 467.25151947 -119.04394531 467.24291992 C-117.68709122 467.24576744 -117.68709122 467.24576744 -116.30282593 467.24867249 C-113.31117087 467.25237813 -110.31975852 467.2416754 -107.328125 467.23046875 C-105.24550403 467.22927626 -103.16288252 467.22882393 -101.08026123 467.2290802 C-96.71232746 467.22751547 -92.34447565 467.21922918 -87.9765625 467.20581055 C-82.39036464 467.18886299 -76.80425721 467.1849951 -71.21803665 467.18575573 C-66.91480656 467.18548306 -62.61159605 467.17998567 -58.3083725 467.17275429 C-56.24958189 467.16958146 -54.19078907 467.16760346 -52.13199615 467.16686058 C-49.24583709 467.16467988 -46.35977159 467.15589733 -43.47363281 467.14526367 C-42.20774826 467.14594345 -42.20774826 467.14594345 -40.91629028 467.14663696 C-35.86017929 467.11955123 -31.00580327 466.72110553 -26 466 C-28.76198588 463.84338089 -31.56655324 462.07856481 -34.625 460.375 C-44.25753862 454.58131133 -50.67616147 447.78121107 -56.11328125 438.015625 C-58.20175652 434.67752374 -59.9118088 432.46669593 -63 430 C-65.94738456 429.3301388 -68.79115954 429.41528486 -71.80078125 429.51171875 C-72.63715622 429.51879349 -73.47353119 429.52586823 -74.33525085 429.53315735 C-76.99526052 429.56105015 -79.65313139 429.62377519 -82.3125 429.6875 C-84.12041221 429.71258966 -85.92835757 429.73540167 -87.73632812 429.75585938 C-92.15837073 429.81085958 -96.57882331 429.89709357 -101 430 Z M25 433 C23.72729754 435.10783136 23.72729754 435.10783136 23.125 437.5625 C19.24913452 448.43074321 11.34072386 454.76361167 2 461 C-0.35673535 462.63911351 -2.68478817 464.30217799 -5 466 C-5 466.33 -5 466.66 -5 467 C29.65 467 64.3 467 100 467 C96.81850357 463.81850357 94.82712472 462.15653625 91.0625 460.0625 C87.09692261 457.73185364 84.0262999 455.51705123 81 452 C80.43539062 451.35289062 79.87078125 450.70578125 79.2890625 450.0390625 C75.37285419 445.32969808 72.92232035 441.02609185 71.1171875 435.1640625 C69.57003232 432.16712555 68.04077391 431.45092506 65 430 C62.34555339 429.71325701 59.93457676 429.57854779 57.28515625 429.6015625 C56.5517955 429.59869232 55.81843475 429.59582214 55.06285095 429.59286499 C53.51723454 429.59083051 51.97159203 429.59631721 50.42602539 429.60888672 C48.07313812 429.62492747 45.72197434 429.60903048 43.36914062 429.58984375 C41.86197541 429.59182674 40.35481126 429.59567158 38.84765625 429.6015625 C38.15060074 429.59548981 37.45354523 429.58941711 36.73536682 429.5831604 C32.11272883 429.64898328 28.92308707 430.55775687 25 433 Z " fill="#FFFFFF" transform="translate(663,95)"/>
</svg>
